<svg width="18" height="18" viewBox="0 0 18 18" fill="none" xmlns="http://www.w3.org/2000/svg">
<g id="Icon/indtagram">
<path id="Union" fill-rule="evenodd" clip-rule="evenodd" d="M6.24341 3.52393C4.89721 3.52393 3.80591 4.61523 3.80591 5.96143V11.9614C3.80591 13.3076 4.89721 14.3989 6.24341 14.3989H12.2434C13.5896 14.3989 14.6809 13.3076 14.6809 11.9614V5.96143C14.6809 4.61523 13.5896 3.52393 12.2434 3.52393H6.24341ZM2.68091 5.96143C2.68091 3.99391 4.27589 2.39893 6.24341 2.39893H12.2434C14.2109 2.39893 15.8059 3.99391 15.8059 5.96143V11.9614C15.8059 13.9289 14.2109 15.5239 12.2434 15.5239H6.24341C4.27589 15.5239 2.68091 13.9289 2.68091 11.9614V5.96143ZM9.24341 7.27393C8.31143 7.27393 7.55591 8.02945 7.55591 8.96143C7.55591 9.89341 8.31143 10.6489 9.24341 10.6489C10.1754 10.6489 10.9309 9.89341 10.9309 8.96143C10.9309 8.02945 10.1754 7.27393 9.24341 7.27393ZM6.43091 8.96143C6.43091 7.40813 7.69011 6.14893 9.24341 6.14893C10.7967 6.14893 12.0559 7.40813 12.0559 8.96143C12.0559 10.5147 10.7967 11.7739 9.24341 11.7739C7.69011 11.7739 6.43091 10.5147 6.43091 8.96143ZM13.1809 5.58643C13.1809 5.27577 12.9291 5.02393 12.6184 5.02393C12.3077 5.02393 12.0559 5.27577 12.0559 5.58643V5.58743C12.0559 5.89809 12.3077 6.14993 12.6184 6.14993C12.9291 6.14993 13.1809 5.89809 13.1809 5.58743V5.58643Z" fill="#282828"/>
</g>
</svg>
