<svg width="18" height="18" viewBox="0 0 18 18" fill="none" xmlns="http://www.w3.org/2000/svg">
<g id="Icon/twitter">
<path id="Vector" d="M16.2272 2.92987C15.4772 3.29737 14.7422 3.44662 13.9772 3.67237C13.1364 2.72362 11.8899 2.67112 10.6922 3.11962C9.49442 3.56812 8.70992 4.66462 8.72717 5.92237V6.67237C6.29342 6.73462 4.12592 5.62612 2.72717 3.67237C2.72717 3.67237 -0.409327 9.24712 5.72717 11.9224C4.32317 12.8576 2.92292 13.4884 1.22717 13.4224C3.70817 14.7746 6.41192 15.2396 8.75267 14.5601C11.4377 13.7801 13.6442 11.7679 14.4909 8.75362C14.7435 7.83688 14.8689 6.88977 14.8637 5.93887C14.8622 5.75212 15.9962 3.85987 16.2272 2.92912V2.92987Z" stroke="#282828" stroke-width="1.125" stroke-linecap="round" stroke-linejoin="round"/>
</g>
</svg>
